<svg xmlns="http://www.w3.org/2000/svg" viewBox="0 0 2048 1590" width="2048" height="1590">
<defs></defs>
<path d="M 111 1175 L 120 1206 L 154 1261 L 239 1355 L 346 1432 L 440 1475 L 553 1504 L 661 1510 L 787 1492 L 858 1469 L 912 1442 L 830 1457 L 783 1460 L 719 1457 L 648 1442 L 601 1425 L 543 1391 L 504 1359 L 403 1255 L 328 1207 L 269 1185 L 215 1176 L 229 1183 L 231 1190 L 245 1188 L 256 1197 L 257 1208 L 266 1206 L 269 1214 L 265 1219 L 254 1218 L 255 1232 L 248 1231 L 246 1239 L 218 1233 L 214 1239 L 201 1239 L 194 1233 L 205 1229 L 182 1232 L 180 1222 L 167 1223 L 162 1210 L 143 1210 L 129 1184 L 114 1184 Z" fill="rgb(28,115,90)" fill-rule="evenodd"/>
<path d="M 98 1154 L 98 1163 L 99 1164 L 100 1164 L 101 1165 L 101 1169 L 102 1170 L 102 1172 L 105 1172 L 106 1173 L 106 1174 L 109 1174 L 109 1167 L 107 1167 L 106 1166 L 106 1164 L 104 1164 L 103 1163 L 103 1159 L 102 1158 L 102 1156 L 101 1156 L 100 1155 L 100 1154 Z" fill="rgb(28,115,90)" fill-rule="evenodd"/>
<path d="M 222 1085 L 223 1090 L 230 1089 L 242 1096 L 244 1101 L 263 1104 L 265 1110 L 281 1113 L 282 1120 L 294 1122 L 299 1139 L 310 1146 L 298 1160 L 288 1157 L 282 1161 L 274 1159 L 273 1164 L 266 1160 L 255 1160 L 239 1165 L 311 1173 L 361 1191 L 426 1229 L 532 1316 L 597 1357 L 677 1389 L 725 1401 L 762 1406 L 724 1392 L 678 1363 L 612 1305 L 523 1210 L 466 1170 L 394 1139 L 252 1098 L 232 1086 Z" fill="rgb(28,115,90)" fill-rule="evenodd"/>
<path d="M 184 1060 L 184 1064 L 187 1064 L 188 1065 L 190 1065 L 191 1066 L 191 1067 L 194 1070 L 195 1070 L 198 1073 L 198 1075 L 199 1075 L 200 1076 L 201 1076 L 202 1077 L 203 1077 L 204 1078 L 207 1078 L 208 1079 L 209 1079 L 210 1080 L 210 1081 L 211 1081 L 212 1082 L 212 1083 L 218 1083 L 218 1080 L 216 1080 L 215 1079 L 215 1078 L 213 1078 L 212 1077 L 211 1077 L 210 1076 L 208 1076 L 206 1074 L 205 1074 L 204 1073 L 202 1073 L 201 1072 L 201 1071 L 199 1069 L 199 1068 L 196 1068 L 193 1065 L 192 1065 L 191 1064 L 191 1063 L 188 1060 Z" fill="rgb(28,115,90)" fill-rule="evenodd"/>
<path d="M 224 1020 L 224 1023 L 225 1024 L 226 1024 L 227 1025 L 228 1025 L 230 1027 L 230 1028 L 231 1028 L 232 1029 L 234 1029 L 235 1030 L 235 1031 L 236 1031 L 237 1032 L 240 1032 L 241 1033 L 243 1033 L 243 1031 L 242 1030 L 242 1029 L 239 1029 L 238 1028 L 236 1028 L 235 1027 L 235 1026 L 234 1026 L 231 1023 L 230 1023 L 228 1021 L 227 1021 L 226 1020 Z" fill="rgb(28,115,90)" fill-rule="evenodd"/>
<path d="M 277 1048 L 301 1056 L 370 1058 L 371 1062 L 387 1063 L 420 1073 L 422 1076 L 445 1083 L 446 1086 L 475 1100 L 511 1126 L 546 1159 L 578 1196 L 616 1248 L 619 1247 L 619 1240 L 590 1169 L 544 1084 L 505 1037 L 480 1015 L 445 992 L 418 982 L 418 987 L 430 988 L 437 995 L 454 1001 L 456 1007 L 460 1007 L 463 1013 L 472 1017 L 474 1026 L 480 1027 L 489 1035 L 489 1039 L 499 1043 L 509 1057 L 510 1068 L 513 1069 L 507 1093 L 487 1093 L 486 1087 L 490 1086 L 489 1083 L 483 1083 L 478 1091 L 477 1087 L 469 1086 L 467 1078 L 455 1081 L 452 1079 L 453 1074 L 443 1074 L 442 1065 L 438 1065 L 438 1071 L 433 1071 L 432 1068 L 417 1063 L 416 1059 L 409 1059 L 408 1064 L 403 1064 L 398 1058 L 388 1058 L 383 1054 L 345 1053 L 339 1056 L 333 1052 L 321 1053 L 318 1049 L 315 1053 L 287 1050 L 284 1047 Z" fill="rgb(28,115,90)" fill-rule="evenodd"/>
<path d="M 562 815 L 561 819 L 563 820 L 563 824 L 569 829 L 569 837 L 561 839 L 560 851 L 556 850 L 557 840 L 550 839 L 549 850 L 551 851 L 552 890 L 561 952 L 576 1011 L 593 1054 L 622 1108 L 653 1150 L 672 1170 L 676 1170 L 687 1162 L 687 1160 L 656 1126 L 625 1080 L 608 1046 L 607 1040 L 603 1035 L 588 991 L 580 956 L 574 913 L 574 887 L 572 880 L 574 816 L 566 817 Z" fill="rgb(28,115,90)" fill-rule="evenodd"/>
<path d="M 62 1078 L 62 1081 L 63 1082 L 63 1083 L 64 1084 L 64 1087 L 65 1087 L 66 1088 L 66 1092 L 67 1093 L 67 1095 L 68 1096 L 68 1097 L 69 1097 L 70 1098 L 70 1102 L 71 1103 L 71 1106 L 72 1106 L 73 1107 L 73 1111 L 74 1112 L 74 1113 L 75 1114 L 75 1117 L 76 1118 L 76 1120 L 77 1120 L 78 1121 L 78 1125 L 79 1126 L 79 1128 L 81 1128 L 81 1125 L 80 1124 L 80 1122 L 79 1122 L 78 1121 L 78 1117 L 77 1116 L 77 1111 L 75 1109 L 74 1109 L 73 1108 L 73 1106 L 74 1105 L 74 1101 L 73 1101 L 72 1100 L 71 1100 L 70 1099 L 70 1093 L 69 1092 L 69 1091 L 68 1090 L 68 1089 L 67 1089 L 66 1088 L 66 1085 L 65 1084 L 65 1081 L 64 1080 L 64 1078 Z" fill="rgb(47,123,59)" fill-rule="evenodd"/>
<path d="M 345 1059 L 345 1061 L 347 1061 L 348 1062 L 353 1062 L 354 1063 L 370 1063 L 370 1061 L 369 1060 L 369 1059 L 358 1059 L 357 1060 L 352 1060 L 351 1059 Z" fill="rgb(47,123,59)" fill-rule="evenodd"/>
<path d="M 304 1057 L 304 1059 L 319 1059 L 320 1060 L 325 1060 L 325 1058 L 319 1058 L 318 1057 Z" fill="rgb(47,123,59)" fill-rule="evenodd"/>
<path d="M 161 1037 L 161 1041 L 164 1044 L 165 1044 L 166 1045 L 167 1045 L 168 1046 L 170 1046 L 170 1044 L 169 1044 L 168 1043 L 168 1042 L 166 1040 L 165 1040 L 164 1039 L 164 1038 L 163 1037 Z" fill="rgb(47,123,59)" fill-rule="evenodd"/>
<path d="M 52 1036 L 52 1040 L 53 1041 L 53 1046 L 54 1047 L 54 1052 L 55 1053 L 55 1056 L 57 1056 L 57 1052 L 56 1051 L 56 1042 L 55 1042 L 54 1041 L 54 1036 Z" fill="rgb(47,123,59)" fill-rule="evenodd"/>
<path d="M 42 989 L 42 992 L 43 993 L 43 996 L 44 997 L 44 1005 L 45 1006 L 45 1008 L 46 1009 L 46 1015 L 47 1016 L 47 1017 L 51 1017 L 51 1012 L 49 1012 L 48 1011 L 48 1007 L 46 1005 L 46 1002 L 47 1001 L 47 998 L 46 997 L 46 994 L 45 993 L 45 992 L 44 991 L 44 989 Z" fill="rgb(47,123,59)" fill-rule="evenodd"/>
<path d="M 439 970 L 439 973 L 440 973 L 441 974 L 443 974 L 444 975 L 445 975 L 446 976 L 446 977 L 448 977 L 448 974 L 447 973 L 447 972 L 445 972 L 444 971 L 444 968 L 442 968 L 441 969 L 440 969 Z" fill="rgb(47,123,59)" fill-rule="evenodd"/>
<path d="M 39 963 L 39 969 L 40 970 L 40 975 L 41 976 L 41 980 L 42 981 L 42 985 L 44 985 L 44 983 L 43 982 L 43 971 L 42 970 L 42 969 L 41 968 L 41 963 Z" fill="rgb(47,123,59)" fill-rule="evenodd"/>
<path d="M 399 928 L 399 930 L 400 931 L 401 931 L 402 932 L 406 932 L 407 933 L 407 934 L 408 934 L 409 935 L 409 936 L 412 939 L 414 939 L 415 940 L 415 941 L 417 941 L 417 939 L 416 939 L 415 938 L 415 937 L 414 937 L 412 935 L 412 934 L 410 934 L 409 933 L 409 932 L 405 932 L 404 931 L 404 930 L 403 929 L 402 929 L 401 928 Z" fill="rgb(47,123,59)" fill-rule="evenodd"/>
<path d="M 90 919 L 90 921 L 91 922 L 91 927 L 92 927 L 93 928 L 93 932 L 94 933 L 94 934 L 95 935 L 95 938 L 97 940 L 97 943 L 98 943 L 99 944 L 99 945 L 100 946 L 100 950 L 101 951 L 101 952 L 103 954 L 103 955 L 104 955 L 105 956 L 105 958 L 106 959 L 106 962 L 107 963 L 107 964 L 108 965 L 108 966 L 109 967 L 109 969 L 110 969 L 111 970 L 111 971 L 113 971 L 113 967 L 111 965 L 111 963 L 110 962 L 110 960 L 109 959 L 108 959 L 107 958 L 107 955 L 106 954 L 106 952 L 105 951 L 105 950 L 104 949 L 104 948 L 103 947 L 103 946 L 102 946 L 101 945 L 101 941 L 99 939 L 99 935 L 98 934 L 98 931 L 97 930 L 97 929 L 96 928 L 95 928 L 94 927 L 94 921 L 93 920 L 93 919 Z" fill="rgb(47,123,59)" fill-rule="evenodd"/>
<path d="M 35 914 L 35 916 L 36 917 L 36 928 L 37 929 L 37 952 L 38 953 L 38 959 L 42 959 L 42 957 L 41 956 L 41 951 L 40 950 L 40 948 L 41 947 L 41 941 L 40 941 L 39 940 L 39 931 L 38 930 L 38 926 L 39 925 L 39 918 L 38 917 L 38 916 L 37 915 L 37 914 Z" fill="rgb(47,123,59)" fill-rule="evenodd"/>
<path d="M 37 882 L 37 888 L 36 889 L 36 898 L 39 898 L 39 896 L 38 895 L 38 887 L 39 886 L 39 882 Z" fill="rgb(47,123,59)" fill-rule="evenodd"/>
<path d="M 221 844 L 221 847 L 225 851 L 229 851 L 229 849 L 228 849 L 226 847 L 226 846 L 225 845 L 224 845 L 223 844 Z" fill="rgb(47,123,59)" fill-rule="evenodd"/>
<path d="M 401 848 L 402 852 L 413 856 L 417 860 L 425 861 L 426 864 L 446 873 L 447 875 L 454 880 L 456 880 L 458 883 L 470 892 L 476 900 L 480 903 L 488 921 L 489 927 L 493 936 L 493 940 L 497 948 L 498 957 L 501 960 L 501 967 L 505 980 L 505 987 L 508 996 L 510 1014 L 521 1024 L 525 1025 L 525 1017 L 522 1016 L 522 1009 L 524 1008 L 522 1004 L 523 1000 L 522 991 L 520 990 L 519 979 L 517 978 L 515 967 L 512 965 L 513 954 L 510 941 L 508 939 L 507 932 L 500 916 L 498 908 L 496 906 L 495 900 L 483 878 L 483 875 L 479 871 L 478 865 L 470 852 L 465 848 L 463 844 L 460 843 L 459 838 L 456 838 L 456 842 L 457 844 L 460 845 L 465 857 L 466 866 L 468 867 L 467 870 L 461 869 L 461 871 L 458 872 L 457 870 L 453 870 L 452 868 L 443 867 L 442 863 L 438 863 L 437 861 L 432 861 L 425 857 L 422 857 L 421 854 L 412 850 Z" fill="rgb(47,123,59)" fill-rule="evenodd"/>
<path d="M 104 835 L 104 837 L 110 843 L 111 843 L 114 846 L 115 846 L 116 847 L 117 847 L 118 848 L 119 848 L 120 849 L 120 850 L 121 851 L 122 851 L 123 852 L 124 852 L 127 855 L 130 855 L 130 847 L 129 847 L 128 846 L 126 846 L 125 845 L 125 844 L 124 844 L 123 843 L 123 841 L 122 840 L 121 840 L 118 837 L 115 837 L 114 836 L 111 836 L 110 835 L 109 835 L 108 834 L 106 834 L 105 835 Z" fill="rgb(47,123,59)" fill-rule="evenodd"/>
<path d="M 364 829 L 364 832 L 365 832 L 366 833 L 366 834 L 367 834 L 368 835 L 372 835 L 373 836 L 373 837 L 376 837 L 377 838 L 377 840 L 378 840 L 380 842 L 381 842 L 382 843 L 384 843 L 385 844 L 386 844 L 387 845 L 388 845 L 389 846 L 390 846 L 392 848 L 396 848 L 396 847 L 397 846 L 398 846 L 398 844 L 395 844 L 394 843 L 392 843 L 390 841 L 388 841 L 387 840 L 385 840 L 384 839 L 384 838 L 383 838 L 382 837 L 376 837 L 375 836 L 375 834 L 374 833 L 372 833 L 371 832 L 371 831 L 370 831 L 369 830 L 367 830 L 366 829 Z" fill="rgb(47,123,59)" fill-rule="evenodd"/>
<path d="M 434 811 L 434 813 L 435 813 L 436 814 L 436 816 L 438 818 L 438 820 L 440 820 L 441 821 L 441 823 L 443 823 L 445 825 L 445 826 L 446 827 L 447 827 L 448 828 L 448 831 L 450 831 L 451 832 L 451 834 L 453 834 L 454 833 L 454 831 L 452 829 L 452 828 L 451 828 L 450 827 L 450 826 L 447 823 L 447 822 L 446 822 L 444 820 L 444 819 L 442 819 L 441 818 L 441 816 L 439 814 L 439 813 L 437 813 L 436 812 L 436 811 Z" fill="rgb(47,123,59)" fill-rule="evenodd"/>
<path d="M 191 801 L 191 805 L 192 805 L 193 806 L 193 810 L 194 810 L 196 812 L 196 813 L 197 814 L 197 817 L 198 818 L 198 819 L 199 820 L 201 820 L 202 821 L 202 823 L 203 824 L 203 825 L 204 826 L 206 826 L 206 823 L 205 822 L 205 821 L 203 821 L 202 820 L 202 817 L 201 816 L 201 815 L 200 814 L 200 813 L 198 811 L 198 810 L 196 808 L 196 807 L 194 807 L 193 806 L 193 801 Z" fill="rgb(47,123,59)" fill-rule="evenodd"/>
<path d="M 457 795 L 457 797 L 458 797 L 459 798 L 459 801 L 463 805 L 463 806 L 467 810 L 469 810 L 470 811 L 470 813 L 473 813 L 474 814 L 474 816 L 475 816 L 476 817 L 476 819 L 478 821 L 478 824 L 480 824 L 481 823 L 481 819 L 480 818 L 480 817 L 479 816 L 479 814 L 475 814 L 474 813 L 474 806 L 471 806 L 470 805 L 470 803 L 469 803 L 467 801 L 467 799 L 464 796 L 464 795 Z" fill="rgb(47,123,59)" fill-rule="evenodd"/>
<path d="M 56 784 L 54 784 L 54 787 L 53 788 L 53 789 L 52 790 L 52 792 L 51 793 L 51 795 L 50 796 L 50 801 L 52 801 L 52 800 L 53 799 L 53 796 L 54 795 L 55 795 L 55 792 L 56 791 L 57 791 L 57 785 Z" fill="rgb(47,123,59)" fill-rule="evenodd"/>
<path d="M 180 783 L 180 785 L 181 785 L 182 786 L 182 789 L 183 790 L 183 791 L 184 791 L 185 792 L 185 795 L 186 795 L 187 796 L 189 796 L 189 794 L 188 794 L 187 793 L 187 791 L 186 790 L 186 789 L 185 788 L 185 787 L 183 787 L 182 786 L 182 783 Z" fill="rgb(47,123,59)" fill-rule="evenodd"/>
<path d="M 100 779 L 100 791 L 101 792 L 101 806 L 102 807 L 102 809 L 108 809 L 109 808 L 115 808 L 115 806 L 111 802 L 110 802 L 109 801 L 107 801 L 106 800 L 106 797 L 105 796 L 105 791 L 104 790 L 104 779 Z" fill="rgb(47,123,59)" fill-rule="evenodd"/>
<path d="M 82 734 L 80 734 L 79 735 L 79 736 L 78 737 L 78 738 L 77 739 L 76 739 L 76 740 L 75 741 L 75 742 L 74 743 L 74 744 L 72 746 L 72 754 L 68 758 L 67 758 L 67 761 L 66 762 L 66 766 L 65 767 L 64 767 L 64 770 L 63 771 L 59 771 L 59 772 L 58 773 L 58 775 L 57 776 L 57 778 L 62 778 L 62 777 L 63 776 L 64 776 L 64 774 L 65 773 L 65 771 L 67 769 L 67 766 L 68 765 L 69 765 L 70 764 L 73 764 L 73 759 L 74 758 L 74 755 L 75 754 L 75 753 L 76 752 L 76 747 L 77 746 L 78 746 L 78 743 L 79 742 L 79 740 L 82 737 Z" fill="rgb(47,123,59)" fill-rule="evenodd"/>
<path d="M 78 694 L 75 694 L 73 696 L 73 697 L 72 698 L 72 700 L 71 701 L 71 709 L 73 709 L 73 708 L 75 706 L 77 706 L 78 705 Z" fill="rgb(47,123,59)" fill-rule="evenodd"/>
<path d="M 522 632 L 522 642 L 519 644 L 519 648 L 518 649 L 513 649 L 512 647 L 506 647 L 505 646 L 505 641 L 499 643 L 499 645 L 504 651 L 508 651 L 511 658 L 515 662 L 515 665 L 519 671 L 522 672 L 522 675 L 526 679 L 527 684 L 529 686 L 530 691 L 533 696 L 535 719 L 537 726 L 538 746 L 539 747 L 539 762 L 540 763 L 541 776 L 542 777 L 543 795 L 544 796 L 544 801 L 548 802 L 548 807 L 546 808 L 547 827 L 555 827 L 556 828 L 556 838 L 558 840 L 560 840 L 561 838 L 565 838 L 565 836 L 564 835 L 564 831 L 560 830 L 560 802 L 559 801 L 559 792 L 557 791 L 558 780 L 557 779 L 556 761 L 555 760 L 554 747 L 553 746 L 553 738 L 551 737 L 552 730 L 550 724 L 550 716 L 548 709 L 547 695 L 545 692 L 545 687 L 541 678 L 541 675 L 538 668 L 536 667 L 535 659 L 533 657 L 533 654 L 531 653 L 530 645 L 527 642 L 527 638 L 525 637 L 524 632 Z" fill="rgb(47,123,59)" fill-rule="evenodd"/>
<path d="M 536 588 L 536 590 L 535 591 L 535 599 L 537 601 L 537 602 L 538 603 L 538 605 L 539 606 L 539 608 L 540 609 L 540 610 L 541 611 L 541 612 L 542 613 L 542 614 L 543 615 L 543 616 L 545 616 L 545 600 L 544 599 L 544 595 L 543 594 L 543 592 L 542 591 L 541 591 L 540 590 L 540 588 Z" fill="rgb(47,123,59)" fill-rule="evenodd"/>
<path d="M 300 517 L 299 518 L 299 522 L 300 523 L 300 526 L 301 526 L 302 527 L 302 531 L 304 531 L 304 528 L 303 527 L 303 522 L 302 521 L 302 517 Z" fill="rgb(47,123,59)" fill-rule="evenodd"/>
<path d="M 302 480 L 302 483 L 304 483 L 305 484 L 305 487 L 307 487 L 308 488 L 308 490 L 313 490 L 313 488 L 312 487 L 312 486 L 311 486 L 310 485 L 310 484 L 309 483 L 307 483 L 306 482 L 306 480 Z" fill="rgb(47,123,59)" fill-rule="evenodd"/>
<path d="M 285 460 L 282 460 L 282 461 L 280 463 L 280 464 L 274 470 L 273 470 L 273 472 L 274 473 L 274 476 L 276 476 L 276 475 L 277 474 L 278 474 L 279 473 L 280 473 L 280 470 L 284 466 L 284 465 L 285 464 Z" fill="rgb(47,123,59)" fill-rule="evenodd"/>
<path d="M 310 462 L 306 458 L 304 458 L 304 459 L 302 461 L 300 461 L 298 463 L 296 463 L 295 464 L 294 464 L 292 466 L 291 466 L 291 467 L 290 468 L 289 468 L 287 470 L 287 480 L 289 480 L 290 479 L 291 479 L 292 478 L 293 478 L 293 477 L 294 476 L 295 476 L 296 475 L 302 475 L 303 474 L 312 474 L 312 466 L 311 465 L 311 464 L 310 463 Z" fill="rgb(47,123,59)" fill-rule="evenodd"/>
<path d="M 249 450 L 245 450 L 245 451 L 244 452 L 238 452 L 233 457 L 232 457 L 232 458 L 231 459 L 230 459 L 230 462 L 229 463 L 225 463 L 224 464 L 224 467 L 230 467 L 230 466 L 231 465 L 233 465 L 234 466 L 236 466 L 237 465 L 237 462 L 238 461 L 238 460 L 239 459 L 241 459 L 242 458 L 243 458 L 245 456 L 245 454 L 246 453 L 247 453 L 248 452 L 249 452 Z" fill="rgb(47,123,59)" fill-rule="evenodd"/>
<path d="M 674 443 L 672 443 L 671 444 L 670 444 L 668 446 L 666 446 L 664 444 L 662 444 L 662 448 L 665 448 L 666 449 L 666 454 L 668 454 L 669 453 L 669 452 L 671 450 L 671 448 L 672 447 L 672 446 L 673 445 L 674 445 Z" fill="rgb(47,123,59)" fill-rule="evenodd"/>
<path d="M 834 393 L 825 390 L 818 399 L 801 402 L 800 406 L 790 409 L 789 413 L 778 419 L 773 427 L 768 427 L 737 457 L 677 531 L 617 627 L 613 625 L 613 618 L 623 586 L 638 494 L 637 488 L 628 492 L 622 486 L 618 472 L 610 465 L 616 475 L 622 515 L 600 626 L 565 768 L 568 814 L 573 813 L 572 786 L 580 776 L 587 738 L 603 687 L 620 649 L 652 593 L 710 509 L 758 454 L 793 420 L 798 420 L 807 408 L 833 398 Z" fill="rgb(47,123,59)" fill-rule="evenodd"/>
<path d="M 1141 222 L 1139 222 L 1139 223 L 1138 224 L 1137 224 L 1133 228 L 1133 230 L 1138 230 L 1138 228 L 1139 227 L 1140 227 L 1140 226 L 1141 225 Z" fill="rgb(47,123,59)" fill-rule="evenodd"/>
<path d="M 910 204 L 908 204 L 907 205 L 906 205 L 906 206 L 905 207 L 904 207 L 902 209 L 902 216 L 904 218 L 905 218 L 907 220 L 909 220 L 910 219 L 911 219 L 912 218 L 913 218 L 914 217 L 915 217 L 915 215 L 916 214 L 916 210 L 915 209 L 915 208 L 914 208 L 913 207 L 913 206 L 912 205 L 911 205 Z" fill="rgb(47,123,59)" fill-rule="evenodd"/>
<path d="M 418 180 L 417 181 L 417 182 L 416 183 L 416 185 L 417 186 L 418 186 L 421 189 L 425 189 L 425 187 L 426 186 L 426 182 L 425 181 L 425 179 L 422 179 L 421 180 Z" fill="rgb(47,123,59)" fill-rule="evenodd"/>
<path d="M 829 141 L 828 142 L 826 142 L 823 145 L 822 145 L 821 146 L 821 147 L 820 148 L 820 149 L 819 150 L 819 153 L 818 154 L 818 159 L 819 160 L 819 162 L 820 163 L 820 164 L 822 166 L 822 167 L 824 169 L 826 169 L 828 171 L 834 171 L 835 170 L 836 170 L 837 169 L 839 169 L 840 168 L 841 168 L 841 167 L 842 166 L 843 166 L 843 165 L 846 162 L 846 160 L 847 159 L 847 152 L 846 151 L 846 149 L 844 147 L 844 146 L 843 145 L 843 144 L 842 144 L 841 143 L 840 143 L 839 142 L 838 142 L 837 141 Z" fill="rgb(47,123,59)" fill-rule="evenodd"/>
<path d="M 934 116 L 931 119 L 931 120 L 930 121 L 930 123 L 931 124 L 931 126 L 933 128 L 934 128 L 935 129 L 935 130 L 936 131 L 939 131 L 942 128 L 942 127 L 944 125 L 944 120 L 943 120 L 942 119 L 942 118 L 940 116 Z" fill="rgb(47,123,59)" fill-rule="evenodd"/>
<path d="M 621 1250 L 621 1257 L 622 1258 L 622 1259 L 625 1262 L 627 1262 L 627 1259 L 625 1257 L 625 1255 L 624 1254 L 624 1252 L 623 1251 L 623 1250 Z" fill="rgb(61,138,94)" fill-rule="evenodd"/>
<path d="M 1817 1146 L 1817 1159 L 1836 1165 L 1850 1182 L 1898 1277 L 1897 1345 L 1891 1354 L 1870 1359 L 1870 1372 L 1974 1372 L 1974 1359 L 1954 1355 L 1946 1345 L 1945 1272 L 1989 1183 L 2002 1167 L 2012 1162 L 2027 1159 L 2027 1146 L 1950 1146 L 1950 1159 L 1969 1164 L 1973 1168 L 1973 1174 L 1936 1251 L 1933 1250 L 1895 1172 L 1898 1163 L 1914 1159 L 1914 1146 Z" fill="rgb(61,138,94)" fill-rule="evenodd"/>
<path d="M 1657 1146 L 1656 1159 L 1676 1163 L 1684 1174 L 1684 1344 L 1680 1352 L 1676 1355 L 1653 1359 L 1653 1372 L 1817 1372 L 1831 1317 L 1831 1310 L 1818 1307 L 1804 1335 L 1791 1350 L 1784 1354 L 1772 1356 L 1741 1355 L 1732 1346 L 1732 1172 L 1742 1162 L 1760 1159 L 1760 1146 Z" fill="rgb(61,138,94)" fill-rule="evenodd"/>
<path d="M 1443 1146 L 1443 1159 L 1463 1163 L 1468 1168 L 1471 1179 L 1471 1339 L 1469 1349 L 1464 1354 L 1443 1359 L 1443 1372 L 1548 1372 L 1548 1359 L 1526 1355 L 1519 1347 L 1517 1339 L 1517 1280 L 1520 1279 L 1531 1283 L 1545 1285 L 1564 1283 L 1580 1278 L 1602 1264 L 1612 1252 L 1621 1229 L 1622 1204 L 1616 1182 L 1608 1170 L 1598 1161 L 1581 1152 L 1566 1148 L 1546 1146 Z M 1527 1161 L 1540 1161 L 1541 1162 L 1545 1162 L 1546 1163 L 1551 1164 L 1553 1166 L 1556 1167 L 1565 1176 L 1565 1177 L 1568 1180 L 1568 1182 L 1569 1183 L 1569 1184 L 1570 1185 L 1570 1187 L 1572 1190 L 1572 1194 L 1573 1195 L 1573 1201 L 1574 1202 L 1574 1224 L 1573 1225 L 1573 1231 L 1572 1232 L 1572 1236 L 1570 1239 L 1570 1241 L 1568 1244 L 1568 1246 L 1566 1248 L 1565 1251 L 1560 1256 L 1560 1257 L 1558 1259 L 1557 1259 L 1555 1261 L 1554 1261 L 1550 1264 L 1548 1264 L 1545 1266 L 1542 1266 L 1541 1267 L 1526 1267 L 1525 1266 L 1520 1265 L 1517 1263 L 1517 1170 L 1518 1169 L 1518 1167 L 1523 1162 L 1526 1162 Z" fill="rgb(61,138,94)" fill-rule="evenodd"/>
<path d="M 1140 1146 L 1140 1159 L 1159 1163 L 1168 1171 L 1170 1194 L 1159 1339 L 1149 1354 L 1130 1359 L 1130 1372 L 1211 1372 L 1211 1359 L 1188 1353 L 1180 1339 L 1185 1198 L 1251 1369 L 1264 1372 L 1334 1197 L 1337 1343 L 1329 1355 L 1311 1359 L 1311 1372 L 1411 1372 L 1411 1359 L 1390 1354 L 1384 1345 L 1381 1172 L 1391 1162 L 1409 1159 L 1409 1146 L 1338 1147 L 1276 1296 L 1212 1147 Z" fill="rgb(61,138,94)" fill-rule="evenodd"/>
<path d="M 983 1141 L 961 1144 L 938 1152 L 924 1160 L 904 1178 L 890 1198 L 881 1219 L 875 1250 L 875 1268 L 878 1290 L 886 1313 L 898 1333 L 911 1348 L 928 1361 L 944 1369 L 959 1374 L 976 1377 L 1002 1377 L 1022 1373 L 1044 1364 L 1065 1349 L 1079 1333 L 1091 1312 L 1099 1287 L 1101 1272 L 1101 1243 L 1098 1224 L 1090 1202 L 1078 1183 L 1062 1166 L 1048 1156 L 1028 1147 L 1014 1143 Z M 980 1157 L 998 1158 L 1006 1161 L 1016 1167 L 1026 1177 L 1039 1199 L 1047 1227 L 1047 1236 L 1049 1245 L 1050 1273 L 1049 1274 L 1047 1303 L 1039 1328 L 1036 1332 L 1035 1336 L 1021 1352 L 1009 1359 L 1002 1361 L 985 1361 L 980 1359 L 976 1359 L 961 1350 L 951 1340 L 943 1328 L 935 1309 L 930 1289 L 930 1282 L 928 1273 L 928 1261 L 927 1260 L 928 1233 L 930 1225 L 930 1217 L 938 1192 L 947 1177 L 958 1166 L 973 1158 L 979 1158 Z" fill="rgb(61,138,94)" fill-rule="evenodd"/>
<path d="M 731 1144 L 705 1152 L 689 1160 L 663 1181 L 647 1204 L 638 1227 L 634 1251 L 635 1280 L 642 1306 L 650 1323 L 662 1339 L 677 1353 L 704 1368 L 744 1377 L 774 1377 L 819 1369 L 834 1331 L 838 1311 L 826 1307 L 806 1340 L 789 1354 L 777 1359 L 756 1360 L 736 1355 L 717 1342 L 702 1323 L 695 1308 L 686 1266 L 688 1228 L 698 1195 L 708 1180 L 720 1169 L 745 1158 L 777 1159 L 796 1167 L 806 1176 L 815 1191 L 821 1209 L 834 1207 L 827 1149 L 775 1141 Z" fill="rgb(61,138,94)" fill-rule="evenodd"/>
<path d="M 469 793 L 469 795 L 470 795 L 471 796 L 471 801 L 472 801 L 473 802 L 473 803 L 474 804 L 474 805 L 476 805 L 476 802 L 477 801 L 478 801 L 478 796 L 472 796 L 471 795 L 471 793 Z" fill="rgb(61,138,94)" fill-rule="evenodd"/>
<path d="M 71 789 L 69 827 L 54 826 L 53 808 L 49 804 L 50 813 L 46 816 L 41 847 L 41 895 L 38 904 L 41 962 L 48 1006 L 52 1011 L 52 1029 L 55 1030 L 60 1065 L 79 1109 L 81 1124 L 87 1127 L 92 1141 L 100 1148 L 94 1154 L 106 1152 L 104 1160 L 111 1159 L 107 1166 L 112 1166 L 112 1172 L 117 1172 L 122 1181 L 130 1184 L 133 1195 L 142 1197 L 138 1205 L 142 1205 L 143 1209 L 150 1204 L 151 1212 L 154 1212 L 154 1201 L 157 1200 L 163 1210 L 169 1209 L 181 1218 L 182 1231 L 205 1228 L 206 1236 L 212 1238 L 215 1232 L 222 1234 L 229 1229 L 241 1232 L 242 1217 L 251 1218 L 247 1230 L 254 1232 L 253 1218 L 265 1218 L 266 1209 L 255 1208 L 253 1195 L 248 1201 L 247 1193 L 238 1195 L 230 1190 L 230 1185 L 215 1180 L 212 1170 L 224 1168 L 224 1164 L 231 1160 L 273 1160 L 283 1153 L 290 1155 L 292 1149 L 304 1153 L 309 1146 L 298 1141 L 294 1126 L 281 1121 L 279 1114 L 261 1112 L 259 1105 L 235 1100 L 233 1093 L 223 1091 L 209 1080 L 201 1080 L 195 1071 L 166 1049 L 142 1022 L 140 1015 L 132 1010 L 132 1005 L 108 969 L 90 927 L 81 877 L 78 876 L 81 855 L 76 839 L 77 790 Z" fill="rgb(61,138,94)" fill-rule="evenodd"/>
<path d="M 559 783 L 559 784 L 558 785 L 558 787 L 559 787 L 560 788 L 560 801 L 562 801 L 563 802 L 563 805 L 565 805 L 565 802 L 566 801 L 566 790 L 563 790 L 561 788 L 561 783 Z" fill="rgb(61,138,94)" fill-rule="evenodd"/>
<path d="M 580 782 L 578 782 L 578 784 L 577 785 L 577 790 L 576 791 L 576 794 L 575 795 L 575 811 L 577 811 L 577 807 L 578 806 L 578 794 L 579 793 L 579 785 L 580 784 Z" fill="rgb(61,138,94)" fill-rule="evenodd"/>
<path d="M 76 759 L 74 759 L 74 764 L 73 765 L 73 767 L 72 768 L 72 770 L 70 772 L 68 772 L 68 776 L 69 777 L 69 779 L 70 779 L 71 780 L 71 782 L 73 782 L 73 780 L 74 779 L 74 777 L 75 776 L 76 776 L 76 772 L 77 771 L 77 760 Z" fill="rgb(61,138,94)" fill-rule="evenodd"/>
<path d="M 305 757 L 305 762 L 308 763 L 309 770 L 313 775 L 316 784 L 319 785 L 319 788 L 321 790 L 324 790 L 328 794 L 330 801 L 332 801 L 336 807 L 338 807 L 343 813 L 345 813 L 351 821 L 357 822 L 359 825 L 364 826 L 365 828 L 371 830 L 372 832 L 374 832 L 380 836 L 385 837 L 386 839 L 390 839 L 392 842 L 397 842 L 402 847 L 411 848 L 413 850 L 421 853 L 423 856 L 428 857 L 430 859 L 437 859 L 438 862 L 445 863 L 446 866 L 448 867 L 457 866 L 458 871 L 460 871 L 461 868 L 467 869 L 467 867 L 464 865 L 462 852 L 459 846 L 454 844 L 454 840 L 450 834 L 447 832 L 447 829 L 445 829 L 444 825 L 441 824 L 440 821 L 437 820 L 433 811 L 429 808 L 428 805 L 426 805 L 424 802 L 420 801 L 420 795 L 416 794 L 416 789 L 413 789 L 408 786 L 407 780 L 398 774 L 397 768 L 392 764 L 388 764 L 385 761 L 383 761 L 383 764 L 390 768 L 388 780 L 391 780 L 392 782 L 394 782 L 395 786 L 394 787 L 384 787 L 382 776 L 377 776 L 376 779 L 372 779 L 367 774 L 364 774 L 363 776 L 355 776 L 354 777 L 348 776 L 347 780 L 343 780 L 341 777 L 333 777 L 332 772 L 325 772 L 318 770 L 317 765 L 316 764 L 309 764 L 307 757 Z" fill="rgb(61,138,94)" fill-rule="evenodd"/>
<path d="M 619 606 L 616 606 L 616 615 L 615 616 L 615 617 L 614 618 L 614 621 L 616 621 L 618 619 L 618 615 L 619 614 Z" fill="rgb(61,138,94)" fill-rule="evenodd"/>
<path d="M 243 603 L 243 608 L 242 609 L 242 613 L 243 614 L 243 617 L 242 618 L 242 620 L 243 621 L 243 622 L 246 622 L 246 612 L 245 611 L 245 603 Z" fill="rgb(61,138,94)" fill-rule="evenodd"/>
<path d="M 134 572 L 104 624 L 85 666 L 84 680 L 79 683 L 89 694 L 105 692 L 110 700 L 101 772 L 106 796 L 117 808 L 134 815 L 155 837 L 161 851 L 159 862 L 175 949 L 188 967 L 185 974 L 195 991 L 244 1033 L 271 1046 L 308 1052 L 315 1048 L 375 1052 L 389 1057 L 399 1053 L 400 1061 L 406 1054 L 423 1063 L 428 1060 L 436 1070 L 437 1063 L 446 1060 L 443 1071 L 452 1071 L 455 1079 L 461 1067 L 472 1084 L 486 1073 L 486 1082 L 491 1083 L 488 1091 L 507 1090 L 509 1064 L 503 1060 L 508 1057 L 498 1043 L 475 1030 L 461 1011 L 453 1011 L 448 999 L 418 988 L 401 974 L 405 968 L 428 968 L 437 973 L 437 965 L 418 944 L 393 926 L 377 921 L 376 916 L 347 909 L 346 905 L 320 902 L 313 895 L 268 882 L 237 863 L 206 832 L 168 768 L 163 742 L 175 737 L 180 747 L 188 746 L 194 707 L 225 688 L 232 672 L 230 662 L 219 658 L 218 649 L 199 653 L 200 659 L 186 668 L 185 675 L 168 675 L 166 697 L 158 697 L 155 679 L 141 674 L 141 662 L 129 658 L 129 637 L 119 634 L 133 584 L 141 585 Z M 114 690 L 116 690 L 117 691 L 117 692 L 118 693 L 118 697 L 117 698 L 115 698 L 113 696 L 113 691 Z M 107 674 L 116 674 L 117 675 L 117 686 L 116 687 L 113 687 L 113 690 L 112 691 L 107 691 L 106 690 L 106 687 L 104 687 L 103 686 L 103 683 L 104 682 L 104 678 L 105 677 L 106 677 L 106 675 Z M 114 647 L 116 647 L 117 648 L 117 661 L 116 662 L 113 662 L 112 661 L 112 650 L 113 649 L 113 648 Z" fill="rgb(61,138,94)" fill-rule="evenodd"/>
<path d="M 147 557 L 145 557 L 145 558 L 144 559 L 143 559 L 142 560 L 142 561 L 141 562 L 141 566 L 140 567 L 138 567 L 137 568 L 137 570 L 142 570 L 142 565 L 143 564 L 144 564 L 145 563 L 145 560 L 146 559 L 147 559 Z" fill="rgb(61,138,94)" fill-rule="evenodd"/>
<path d="M 482 827 L 482 829 L 483 830 L 483 831 L 485 833 L 485 834 L 486 835 L 486 836 L 488 836 L 488 834 L 487 833 L 487 827 Z" fill="rgb(84,155,71)" fill-rule="evenodd"/>
<path d="M 67 776 L 65 776 L 65 779 L 64 780 L 63 780 L 63 781 L 61 783 L 60 783 L 60 784 L 59 785 L 59 790 L 57 792 L 57 794 L 55 796 L 55 799 L 54 800 L 54 803 L 56 803 L 57 804 L 57 807 L 56 808 L 54 808 L 54 813 L 55 814 L 55 820 L 57 820 L 58 821 L 58 826 L 69 826 L 70 825 L 70 814 L 69 813 L 69 811 L 70 810 L 70 808 L 69 808 L 68 807 L 68 802 L 69 801 L 70 801 L 70 787 L 69 787 L 68 786 L 68 785 L 67 784 Z" fill="rgb(84,155,71)" fill-rule="evenodd"/>
<path d="M 81 750 L 79 750 L 78 751 L 78 752 L 76 754 L 76 758 L 78 760 L 78 762 L 80 762 L 80 756 L 81 755 Z" fill="rgb(84,155,71)" fill-rule="evenodd"/>
<path d="M 85 689 L 83 689 L 82 690 L 82 691 L 80 693 L 80 695 L 81 696 L 81 697 L 82 697 L 83 698 L 83 700 L 82 701 L 80 701 L 80 703 L 82 703 L 82 701 L 83 700 L 85 700 L 86 699 L 87 699 L 87 698 L 88 697 L 91 697 L 91 695 L 87 695 L 86 694 L 86 690 Z" fill="rgb(84,155,71)" fill-rule="evenodd"/>
<path d="M 109 675 L 109 678 L 110 679 L 110 681 L 108 683 L 108 685 L 109 685 L 110 686 L 110 687 L 112 687 L 113 686 L 116 686 L 116 684 L 115 683 L 115 681 L 116 680 L 116 675 Z" fill="rgb(84,155,71)" fill-rule="evenodd"/>
<path d="M 273 605 L 274 657 L 276 662 L 278 684 L 281 693 L 283 708 L 286 716 L 286 721 L 290 728 L 291 736 L 295 743 L 295 747 L 298 750 L 299 756 L 306 755 L 308 757 L 309 763 L 319 764 L 320 769 L 322 770 L 336 768 L 337 772 L 334 773 L 333 776 L 336 776 L 338 773 L 344 773 L 345 769 L 348 769 L 349 773 L 363 773 L 368 769 L 371 769 L 372 767 L 376 767 L 379 773 L 381 773 L 382 771 L 386 771 L 388 767 L 385 767 L 382 764 L 381 760 L 386 759 L 388 763 L 391 763 L 390 759 L 371 738 L 371 736 L 360 723 L 350 707 L 346 704 L 346 701 L 344 698 L 339 694 L 337 688 L 333 686 L 332 682 L 328 678 L 327 672 L 321 669 L 319 662 L 315 662 L 314 657 L 306 658 L 307 661 L 310 661 L 311 663 L 315 664 L 315 670 L 306 671 L 304 675 L 296 675 L 293 672 L 293 669 L 298 668 L 299 665 L 291 664 L 291 658 L 288 658 L 284 653 L 284 650 L 287 649 L 287 647 L 282 649 L 280 640 L 277 639 L 277 637 L 279 636 L 279 624 L 277 623 L 278 609 L 275 605 Z" fill="rgb(84,155,71)" fill-rule="evenodd"/>
<path d="M 327 604 L 330 611 L 338 614 L 341 619 L 344 619 L 352 628 L 356 629 L 359 636 L 364 638 L 365 646 L 368 649 L 375 650 L 374 657 L 383 658 L 382 671 L 377 675 L 376 679 L 372 679 L 371 677 L 359 678 L 358 676 L 355 676 L 350 680 L 342 681 L 342 683 L 349 689 L 349 692 L 355 700 L 360 703 L 361 708 L 383 731 L 388 733 L 388 736 L 390 736 L 388 730 L 391 726 L 391 715 L 395 715 L 395 743 L 410 757 L 412 757 L 418 706 L 421 705 L 425 726 L 424 769 L 431 773 L 440 783 L 445 785 L 449 766 L 449 753 L 452 752 L 452 773 L 455 774 L 455 779 L 452 780 L 451 788 L 455 788 L 457 792 L 461 792 L 467 796 L 468 791 L 473 786 L 471 783 L 471 756 L 461 714 L 447 685 L 436 671 L 420 656 L 352 617 L 346 617 L 342 611 L 338 611 L 337 608 Z" fill="rgb(84,155,71)" fill-rule="evenodd"/>
<path d="M 1625 543 L 1625 1034 L 1765 1034 L 1765 848 L 1782 797 L 1826 745 L 1919 705 L 1948 678 L 1903 700 L 1823 723 L 1796 743 L 1766 784 L 1766 751 L 1782 708 L 1823 670 L 1941 645 L 1980 616 L 1989 651 L 1988 695 L 1978 735 L 1957 770 L 1902 808 L 1798 823 L 1780 845 L 1776 878 L 1801 928 L 1880 1034 L 2047 1034 L 1931 856 L 2005 809 L 2042 744 L 2047 675 L 2034 635 L 2009 596 L 1967 562 L 1910 543 Z" fill="rgb(84,155,71)" fill-rule="evenodd"/>
<path d="M 696 539 L 687 827 L 671 1037 L 1058 1037 L 1065 926 L 828 932 L 830 847 L 904 840 L 1030 841 L 1037 730 L 840 731 L 842 652 L 877 646 L 1076 649 L 1082 539 Z" fill="rgb(84,155,71)" fill-rule="evenodd"/>
<path d="M 1487 548 L 1452 539 L 1178 539 L 1175 747 L 1158 1037 L 1299 1037 L 1311 645 L 1393 645 L 1411 656 L 1422 679 L 1419 712 L 1396 741 L 1372 750 L 1322 748 L 1344 847 L 1398 852 L 1452 843 L 1497 822 L 1534 786 L 1558 737 L 1565 701 L 1565 663 L 1550 607 L 1529 577 Z" fill="rgb(84,155,71)" fill-rule="evenodd"/>
<path d="M 489 507 L 488 508 L 488 510 L 489 510 L 490 511 L 490 516 L 491 517 L 492 517 L 493 518 L 493 522 L 494 523 L 496 523 L 497 524 L 497 529 L 498 530 L 498 531 L 500 533 L 500 534 L 501 535 L 501 536 L 503 536 L 503 535 L 505 533 L 505 531 L 507 529 L 507 527 L 508 526 L 508 518 L 503 518 L 502 517 L 494 517 L 493 516 L 493 513 L 492 513 L 491 512 L 491 507 Z" fill="rgb(84,155,71)" fill-rule="evenodd"/>
<path d="M 304 504 L 303 505 L 302 505 L 302 510 L 303 511 L 303 513 L 302 514 L 302 516 L 303 517 L 303 521 L 304 522 L 304 527 L 305 527 L 306 528 L 306 529 L 308 529 L 309 528 L 309 507 L 308 506 L 308 505 L 307 504 Z" fill="rgb(84,155,71)" fill-rule="evenodd"/>
<path d="M 293 486 L 290 489 L 290 490 L 289 491 L 289 493 L 291 495 L 292 495 L 296 499 L 299 499 L 300 500 L 302 500 L 302 499 L 303 498 L 303 497 L 304 496 L 304 494 L 303 494 L 302 493 L 302 491 L 303 490 L 303 488 L 302 488 L 301 487 L 301 486 L 300 485 L 300 484 L 298 484 L 297 485 L 295 485 L 294 486 Z" fill="rgb(84,155,71)" fill-rule="evenodd"/>
<path d="M 386 472 L 386 489 L 389 509 L 393 520 L 394 528 L 407 556 L 422 579 L 436 595 L 441 598 L 449 607 L 452 608 L 454 611 L 459 612 L 463 618 L 470 623 L 472 623 L 479 630 L 483 631 L 484 635 L 490 638 L 490 641 L 505 640 L 510 646 L 518 648 L 516 641 L 520 640 L 520 635 L 517 634 L 517 632 L 520 631 L 520 629 L 516 624 L 514 614 L 510 610 L 511 601 L 505 589 L 501 585 L 498 574 L 491 563 L 483 547 L 481 540 L 476 534 L 476 530 L 473 527 L 471 518 L 465 515 L 464 506 L 462 506 L 462 510 L 465 519 L 468 520 L 467 531 L 464 532 L 463 538 L 460 539 L 451 538 L 450 529 L 448 529 L 447 537 L 441 536 L 440 533 L 425 536 L 423 534 L 418 534 L 416 532 L 413 532 L 411 527 L 408 525 L 409 520 L 404 520 L 403 515 L 399 513 L 398 509 L 394 508 L 394 497 L 393 493 L 391 492 L 392 486 L 389 485 L 389 475 L 388 472 Z" fill="rgb(84,155,71)" fill-rule="evenodd"/>
<path d="M 273 477 L 262 477 L 259 484 L 255 485 L 250 477 L 241 476 L 235 468 L 222 469 L 220 472 L 216 473 L 205 485 L 205 489 L 199 490 L 193 497 L 191 503 L 186 504 L 186 508 L 182 509 L 182 512 L 176 517 L 174 522 L 169 524 L 169 527 L 164 532 L 157 546 L 156 553 L 149 556 L 149 561 L 146 562 L 143 570 L 138 572 L 138 580 L 142 585 L 138 586 L 134 584 L 132 589 L 132 611 L 126 614 L 126 619 L 123 620 L 125 626 L 121 630 L 121 633 L 125 633 L 130 637 L 130 658 L 132 661 L 142 661 L 145 674 L 156 675 L 158 679 L 156 693 L 158 695 L 165 697 L 165 685 L 167 684 L 165 674 L 174 674 L 179 668 L 188 667 L 190 660 L 193 657 L 198 657 L 198 653 L 202 649 L 218 648 L 221 650 L 221 654 L 223 654 L 221 647 L 215 645 L 215 641 L 225 640 L 226 629 L 233 621 L 236 621 L 238 624 L 241 639 L 241 649 L 236 650 L 236 653 L 242 655 L 247 654 L 249 648 L 247 623 L 243 623 L 241 620 L 242 599 L 245 598 L 246 611 L 249 610 L 255 550 L 248 545 L 237 525 L 237 517 L 244 507 L 244 504 L 252 499 L 253 496 L 259 496 L 261 489 L 266 488 L 269 490 L 271 488 L 278 488 L 279 482 L 275 481 Z M 248 560 L 249 561 L 249 563 L 248 564 L 248 565 L 247 566 L 246 566 L 246 569 L 245 570 L 243 570 L 241 572 L 241 573 L 238 576 L 238 577 L 237 578 L 236 578 L 236 579 L 234 581 L 231 581 L 230 580 L 229 580 L 228 579 L 228 570 L 229 569 L 229 568 L 233 564 L 234 564 L 236 562 L 238 562 L 238 561 L 239 560 Z" fill="rgb(84,155,71)" fill-rule="evenodd"/>
<path d="M 663 449 L 661 449 L 661 463 L 660 464 L 660 469 L 662 469 L 664 467 L 664 466 L 665 465 L 665 464 L 666 463 L 666 461 L 667 460 L 667 458 L 666 458 L 665 457 L 665 453 L 664 453 L 663 452 Z" fill="rgb(84,155,71)" fill-rule="evenodd"/>
<path d="M 533 442 L 533 448 L 535 450 L 535 454 L 537 456 L 537 461 L 539 464 L 540 473 L 542 473 L 543 474 L 543 478 L 544 479 L 544 481 L 542 485 L 539 485 L 538 484 L 538 482 L 531 482 L 531 485 L 529 486 L 529 495 L 527 497 L 526 507 L 524 510 L 524 513 L 522 518 L 522 522 L 518 530 L 516 538 L 512 544 L 512 546 L 510 548 L 510 552 L 514 558 L 515 561 L 517 563 L 524 577 L 527 579 L 527 582 L 529 582 L 530 583 L 530 585 L 534 585 L 535 587 L 541 586 L 543 588 L 544 594 L 546 594 L 546 579 L 547 578 L 547 566 L 548 565 L 548 554 L 549 553 L 549 539 L 550 538 L 550 531 L 551 530 L 551 524 L 552 523 L 552 518 L 553 517 L 553 497 L 551 496 L 551 485 L 549 483 L 549 478 L 548 477 L 548 474 L 546 471 L 546 468 L 545 468 L 544 467 L 544 465 L 542 464 L 542 457 L 540 455 L 540 452 L 536 450 L 536 444 L 535 442 Z" fill="rgb(84,155,71)" fill-rule="evenodd"/>
<path d="M 246 446 L 246 449 L 249 449 L 250 450 L 250 452 L 251 453 L 253 453 L 253 451 L 254 450 L 259 449 L 259 448 L 260 447 L 263 447 L 268 443 L 273 443 L 274 444 L 274 446 L 276 449 L 282 449 L 286 453 L 286 458 L 287 458 L 288 459 L 291 459 L 292 458 L 293 458 L 299 453 L 311 453 L 312 454 L 312 459 L 315 462 L 315 466 L 317 468 L 317 472 L 319 472 L 320 473 L 324 473 L 324 472 L 325 471 L 326 471 L 326 470 L 327 469 L 327 467 L 326 467 L 325 466 L 325 456 L 323 456 L 322 455 L 321 455 L 320 454 L 320 451 L 319 450 L 316 450 L 314 448 L 314 446 L 313 445 L 313 442 L 312 441 L 310 441 L 310 444 L 309 445 L 304 445 L 303 446 L 302 446 L 299 449 L 298 449 L 298 450 L 297 451 L 296 451 L 293 453 L 291 453 L 290 452 L 290 451 L 289 450 L 289 447 L 290 446 L 290 441 L 289 441 L 287 438 L 287 434 L 288 433 L 289 433 L 289 429 L 288 428 L 288 427 L 285 427 L 284 426 L 284 424 L 283 424 L 282 423 L 282 422 L 277 422 L 276 423 L 275 423 L 275 425 L 273 427 L 271 427 L 270 428 L 269 428 L 266 432 L 265 432 L 264 433 L 261 433 L 261 435 L 260 436 L 257 436 L 254 439 L 253 439 L 251 442 L 250 442 L 249 443 L 249 445 L 248 446 Z" fill="rgb(84,155,71)" fill-rule="evenodd"/>
<path d="M 318 411 L 316 411 L 315 412 L 315 413 L 314 414 L 313 414 L 312 415 L 312 416 L 310 418 L 308 418 L 307 419 L 302 419 L 301 420 L 300 420 L 300 422 L 301 422 L 302 423 L 302 425 L 304 425 L 305 426 L 305 427 L 307 427 L 308 428 L 312 428 L 313 429 L 315 429 L 317 427 L 317 416 L 318 415 Z" fill="rgb(84,155,71)" fill-rule="evenodd"/>
<path d="M 379 365 L 375 365 L 374 366 L 371 366 L 371 368 L 370 369 L 368 369 L 365 372 L 364 372 L 363 373 L 360 373 L 359 374 L 356 374 L 355 375 L 353 375 L 352 376 L 351 376 L 350 377 L 349 377 L 346 379 L 344 379 L 343 380 L 340 380 L 340 382 L 339 383 L 339 388 L 340 389 L 341 389 L 345 393 L 345 394 L 346 395 L 346 400 L 345 401 L 344 404 L 338 408 L 338 418 L 339 419 L 339 421 L 340 422 L 340 424 L 341 425 L 341 426 L 342 427 L 342 428 L 343 429 L 344 432 L 345 433 L 349 433 L 350 434 L 350 435 L 351 435 L 352 436 L 352 437 L 354 437 L 355 438 L 357 438 L 358 437 L 364 437 L 364 431 L 365 430 L 365 428 L 366 427 L 366 421 L 367 420 L 368 420 L 368 419 L 369 418 L 369 415 L 370 414 L 370 412 L 371 411 L 371 401 L 372 400 L 372 397 L 373 396 L 373 393 L 374 392 L 374 389 L 375 388 L 375 382 L 376 381 L 376 376 L 378 374 L 378 370 L 379 369 Z" fill="rgb(84,155,71)" fill-rule="evenodd"/>
<path d="M 575 350 L 575 356 L 577 362 L 578 374 L 580 378 L 581 385 L 584 392 L 586 401 L 588 403 L 588 407 L 590 410 L 590 413 L 592 414 L 593 421 L 595 423 L 597 429 L 597 432 L 602 440 L 602 443 L 606 449 L 606 452 L 608 453 L 608 458 L 612 461 L 612 464 L 615 470 L 617 470 L 619 472 L 619 475 L 621 476 L 622 481 L 626 483 L 626 486 L 628 489 L 628 491 L 634 490 L 635 485 L 633 484 L 633 479 L 636 478 L 637 479 L 637 483 L 639 483 L 639 468 L 640 467 L 640 422 L 641 421 L 641 414 L 642 413 L 642 397 L 644 391 L 644 376 L 646 371 L 646 365 L 648 360 L 648 352 L 649 349 L 646 349 L 643 351 L 643 356 L 641 357 L 638 361 L 638 366 L 633 368 L 633 371 L 631 373 L 631 382 L 630 383 L 618 383 L 617 384 L 596 383 L 595 382 L 595 377 L 593 376 L 593 372 L 589 372 L 588 369 L 584 369 L 583 368 L 583 361 L 582 361 L 580 358 L 580 354 L 578 354 L 577 353 L 577 350 Z" fill="rgb(84,155,71)" fill-rule="evenodd"/>
<path d="M 689 326 L 687 326 L 686 327 L 684 327 L 683 328 L 683 332 L 690 332 L 690 328 L 689 327 Z" fill="rgb(84,155,71)" fill-rule="evenodd"/>
<path d="M 708 313 L 705 313 L 705 314 L 704 315 L 701 315 L 701 327 L 703 327 L 703 324 L 704 323 L 704 320 L 705 319 L 710 319 L 710 317 L 708 315 Z" fill="rgb(84,155,71)" fill-rule="evenodd"/>
<path d="M 772 255 L 768 256 L 768 265 L 765 266 L 764 269 L 762 269 L 761 283 L 757 289 L 753 289 L 752 296 L 742 299 L 741 305 L 735 305 L 733 307 L 728 307 L 727 309 L 720 309 L 719 306 L 717 306 L 720 316 L 719 319 L 714 320 L 712 324 L 711 339 L 701 339 L 701 343 L 699 345 L 693 345 L 692 343 L 690 343 L 689 345 L 684 346 L 678 344 L 679 341 L 683 341 L 683 339 L 679 339 L 677 337 L 678 330 L 675 329 L 671 332 L 666 358 L 667 369 L 674 369 L 682 359 L 684 359 L 685 361 L 688 360 L 688 356 L 679 358 L 679 351 L 689 349 L 691 355 L 697 356 L 697 353 L 703 350 L 705 347 L 708 347 L 709 350 L 703 358 L 699 360 L 692 368 L 663 393 L 662 426 L 664 427 L 665 438 L 661 439 L 661 441 L 666 439 L 667 442 L 671 443 L 672 439 L 678 437 L 678 432 L 682 428 L 688 428 L 687 422 L 694 420 L 694 416 L 700 412 L 700 408 L 708 404 L 733 376 L 733 373 L 738 371 L 747 358 L 747 355 L 751 352 L 763 327 L 764 319 L 768 311 L 769 296 L 772 283 Z" fill="rgb(84,155,71)" fill-rule="evenodd"/>
<path d="M 1130 241 L 1122 235 L 1096 249 L 1063 256 L 962 250 L 917 262 L 890 280 L 868 304 L 841 352 L 835 380 L 829 384 L 836 389 L 842 382 L 849 382 L 872 356 L 911 326 L 947 317 L 936 312 L 902 323 L 904 315 L 885 303 L 895 285 L 903 280 L 914 281 L 916 274 L 944 259 L 956 263 L 960 259 L 991 257 L 1015 263 L 1014 269 L 1004 270 L 1006 287 L 1003 294 L 982 296 L 978 303 L 966 303 L 962 310 L 951 307 L 948 313 L 1042 294 L 1046 297 L 945 331 L 982 350 L 982 354 L 933 338 L 890 365 L 872 385 L 930 380 L 931 377 L 937 381 L 945 378 L 952 383 L 975 384 L 1021 371 L 1048 353 L 1079 321 L 1119 264 L 1120 253 L 1124 252 L 1124 244 Z M 909 359 L 910 358 L 913 358 L 914 359 L 915 359 L 916 360 L 919 360 L 921 362 L 922 362 L 923 363 L 924 363 L 925 364 L 927 364 L 929 366 L 930 366 L 931 367 L 932 367 L 933 368 L 933 370 L 932 371 L 930 371 L 929 370 L 928 370 L 927 369 L 926 369 L 925 368 L 923 368 L 921 366 L 919 366 L 918 365 L 916 365 L 915 364 L 914 364 L 913 363 L 912 363 L 911 362 L 910 362 L 909 361 Z" fill="rgb(84,155,71)" fill-rule="evenodd"/>
<path d="M 278 554 L 278 556 L 280 556 L 282 559 L 282 563 L 280 564 L 279 567 L 279 579 L 281 579 L 282 582 L 279 583 L 278 586 L 276 586 L 277 591 L 275 598 L 278 599 L 278 608 L 279 609 L 278 623 L 280 624 L 280 637 L 283 637 L 285 639 L 285 644 L 288 647 L 288 651 L 286 652 L 286 655 L 294 656 L 295 661 L 302 661 L 303 662 L 303 667 L 301 669 L 299 669 L 298 671 L 296 671 L 296 674 L 304 674 L 304 672 L 306 670 L 311 670 L 311 668 L 306 667 L 306 661 L 304 660 L 305 657 L 311 656 L 313 652 L 313 648 L 311 648 L 310 650 L 307 649 L 307 645 L 309 644 L 310 640 L 312 640 L 315 643 L 320 654 L 322 654 L 323 658 L 328 661 L 333 670 L 341 668 L 348 675 L 348 677 L 351 677 L 354 674 L 367 674 L 376 671 L 377 666 L 382 666 L 382 658 L 376 659 L 370 657 L 370 653 L 372 652 L 372 650 L 366 649 L 366 647 L 364 646 L 364 641 L 361 641 L 360 643 L 357 642 L 356 633 L 354 631 L 354 629 L 347 626 L 347 622 L 344 620 L 341 620 L 333 612 L 330 612 L 328 608 L 324 607 L 321 602 L 318 602 L 316 598 L 316 593 L 313 590 L 311 590 L 310 593 L 307 593 L 306 590 L 303 588 L 303 586 L 301 586 L 297 582 L 296 577 L 293 574 L 293 570 L 295 569 L 295 566 L 292 564 L 292 560 L 290 559 L 290 556 L 288 555 L 288 549 L 286 549 L 284 554 Z" fill="rgb(117,178,67)" fill-rule="evenodd"/>
<path d="M 282 526 L 282 543 L 281 544 L 281 547 L 285 547 L 285 544 L 286 543 L 286 540 L 285 539 L 285 537 L 284 536 L 284 526 Z" fill="rgb(117,178,67)" fill-rule="evenodd"/>
<path d="M 673 371 L 668 371 L 667 372 L 665 372 L 665 375 L 664 376 L 664 378 L 666 378 L 666 376 L 667 375 L 670 375 L 672 373 L 673 373 Z" fill="rgb(117,178,67)" fill-rule="evenodd"/>
<path d="M 915 361 L 915 363 L 916 364 L 918 364 L 919 365 L 921 365 L 923 367 L 925 367 L 926 368 L 928 368 L 928 366 L 927 365 L 925 365 L 924 364 L 923 364 L 922 363 L 921 363 L 919 361 Z" fill="rgb(117,178,67)" fill-rule="evenodd"/>
<path d="M 679 333 L 679 338 L 683 338 L 684 339 L 684 345 L 686 345 L 686 339 L 687 338 L 687 333 Z" fill="rgb(117,178,67)" fill-rule="evenodd"/>
<path d="M 527 284 L 526 285 L 525 285 L 522 288 L 522 300 L 524 302 L 524 303 L 525 303 L 527 305 L 535 305 L 537 303 L 537 302 L 538 301 L 539 301 L 541 299 L 541 290 L 539 288 L 539 287 L 538 286 L 537 286 L 536 285 L 533 285 L 532 284 Z" fill="rgb(117,178,67)" fill-rule="evenodd"/>
<path d="M 1013 264 L 1007 264 L 1006 265 L 996 265 L 995 264 L 993 264 L 992 265 L 988 265 L 987 264 L 987 261 L 981 261 L 980 260 L 967 260 L 967 262 L 966 263 L 960 263 L 960 265 L 959 266 L 957 266 L 956 264 L 953 264 L 951 260 L 947 260 L 947 263 L 946 264 L 939 263 L 938 265 L 933 265 L 931 266 L 927 270 L 926 270 L 924 273 L 921 273 L 921 277 L 920 278 L 915 278 L 915 281 L 914 282 L 909 282 L 907 287 L 903 287 L 898 289 L 894 289 L 894 290 L 892 291 L 893 296 L 891 297 L 891 306 L 902 306 L 903 307 L 903 312 L 905 313 L 905 318 L 913 318 L 913 312 L 914 311 L 917 311 L 918 312 L 918 314 L 921 314 L 921 311 L 922 310 L 925 310 L 927 311 L 928 313 L 930 313 L 931 311 L 940 311 L 940 307 L 942 305 L 947 305 L 948 307 L 950 307 L 954 304 L 959 304 L 960 306 L 962 306 L 962 305 L 965 303 L 966 301 L 968 301 L 969 303 L 976 302 L 976 299 L 977 298 L 980 298 L 983 292 L 990 292 L 991 293 L 1000 292 L 1001 293 L 1003 293 L 1003 287 L 1005 286 L 1005 284 L 1003 282 L 1003 278 L 1002 277 L 1002 275 L 1003 274 L 1003 269 L 1004 268 L 1010 269 L 1010 267 L 1011 266 L 1013 266 Z" fill="rgb(117,178,67)" fill-rule="evenodd"/>
<path d="M 440 253 L 412 322 L 390 406 L 386 462 L 390 482 L 393 486 L 392 492 L 395 501 L 398 502 L 397 508 L 404 515 L 404 519 L 410 519 L 411 525 L 418 533 L 442 532 L 447 535 L 447 529 L 450 528 L 451 535 L 458 537 L 463 531 L 460 522 L 461 505 L 458 503 L 458 486 L 442 442 L 433 407 L 433 398 L 436 398 L 440 404 L 457 449 L 472 482 L 480 494 L 484 494 L 491 479 L 495 479 L 488 500 L 494 513 L 502 515 L 512 505 L 512 500 L 519 499 L 526 479 L 539 475 L 531 443 L 527 439 L 528 431 L 521 426 L 521 422 L 515 414 L 511 413 L 511 410 L 478 375 L 454 339 L 444 304 L 442 253 Z" fill="rgb(117,178,67)" fill-rule="evenodd"/>
<path d="M 692 28 L 694 74 L 683 121 L 658 163 L 597 238 L 576 293 L 573 311 L 575 338 L 578 339 L 578 349 L 584 353 L 581 358 L 594 372 L 597 382 L 615 383 L 618 371 L 624 374 L 624 382 L 630 382 L 630 372 L 648 343 L 648 335 L 652 334 L 652 323 L 656 320 L 661 297 L 696 199 L 699 200 L 699 211 L 678 294 L 678 307 L 675 308 L 673 317 L 709 296 L 719 284 L 724 289 L 718 299 L 713 301 L 715 310 L 711 319 L 705 322 L 705 327 L 698 329 L 700 323 L 693 327 L 693 342 L 697 343 L 696 331 L 702 332 L 699 338 L 703 338 L 705 332 L 711 338 L 707 327 L 711 326 L 713 319 L 718 319 L 715 307 L 720 300 L 726 300 L 729 306 L 741 304 L 742 296 L 752 293 L 754 285 L 760 283 L 764 257 L 772 248 L 768 199 L 751 144 L 731 97 Z" fill="rgb(117,178,67)" fill-rule="evenodd"/>
</svg>